{
  "accessors": [
    {
      "bufferView": 2,
      "componentType": 5126,
      "count": 961,
      "max": [
        356.4564208984375,
        29.835664749145508,
        354.5038146972656
      ],
      "min": [
        -356.45660400390625,
        -29.83568000793457,
        -354.5039978027344
      ],
      "type": "VEC3"
    },
    {
      "bufferView": 2,
      "byteOffset": 11532,
      "componentType": 5126,
      "count": 961,
      "max": [
        1.0,
        0.9953194260597229,
        0.994521975517273
      ],
      "min": [
        -1.0,
        -0.9953194260597229,
        -0.994521975517273
      ],
      "type": "VEC3"
    },
    {
      "bufferView": 1,
      "componentType": 5126,
      "count": 961,
      "max": [
        1.0000003576278687,
        1.0
      ],
      "min": [
        0.0,
        -3.650784492492676e-07
      ],
      "type": "VEC2"
    },
    {
      "bufferView": 0,
      "componentType": 5125,
      "count": 5400,
      "type": "SCALAR"
    },
    {
      "bufferView": 2,
      "byteOffset": 23064,
      "componentType": 5126,
      "count": 439,
      "max": [
        143.7477264404297,
        143.7477264404297,
        143.74774169921875
      ],
      "min": [
        -143.7477569580078,
        -143.7477264404297,
        -143.74778747558594
      ],
      "type": "VEC3"
    },
    {
      "bufferView": 2,
      "byteOffset": 28332,
      "componentType": 5126,
      "count": 439,
      "max": [
        1.0,
        1.0,
        1.0
      ],
      "min": [
        -1.0,
        -1.0,
        -1.0
      ],
      "type": "VEC3"
    },
    {
      "bufferView": 1,
      "byteOffset": 7688,
      "componentType": 5126,
      "count": 439,
      "max": [
        1.0000001192092896,
        1.0
      ],
      "min": [
        0.0,
        0.0
      ],
      "type": "VEC2"
    },
    {
      "bufferView": 0,
      "byteOffset": 21600,
      "componentType": 5125,
      "count": 2280,
      "type": "SCALAR"
    },
    {
      "bufferView": 2,
      "byteOffset": 33600,
      "componentType": 5126,
      "count": 961,
      "max": [
        356.4564208984375,
        29.835664749145508,
        354.5038146972656
      ],
      "min": [
        -356.45660400390625,
        -29.83568000793457,
        -354.5039978027344
      ],
      "type": "VEC3"
    },
    {
      "bufferView": 2,
      "byteOffset": 45132,
      "componentType": 5126,
      "count": 961,
      "max": [
        1.0,
        0.9953194260597229,
        0.994521975517273
      ],
      "min": [
        -1.0,
        -0.9953194260597229,
        -0.994521975517273
      ],
      "type": "VEC3"
    },
    {
      "bufferView": 1,
      "byteOffset": 11200,
      "componentType": 5126,
      "count": 961,
      "max": [
        1.0000003576278687,
        1.0
      ],
      "min": [
        0.0,
        -3.650784492492676e-07
      ],
      "type": "VEC2"
    },
    {
      "bufferView": 0,
      "byteOffset": 30720,
      "componentType": 5125,
      "count": 5400,
      "type": "SCALAR"
    },
    {
      "bufferView": 2,
      "byteOffset": 56664,
      "componentType": 5126,
      "count": 961,
      "max": [
        356.4564208984375,
        29.835664749145508,
        354.5038146972656
      ],
      "min": [
        -356.45660400390625,
        -29.83568000793457,
        -354.5039978027344
      ],
      "type": "VEC3"
    },
    {
      "bufferView": 2,
      "byteOffset": 68196,
      "componentType": 5126,
      "count": 961,
      "max": [
        1.0,
        0.9953194260597229,
        0.994521975517273
      ],
      "min": [
        -1.0,
        -0.9953194260597229,
        -0.994521975517273
      ],
      "type": "VEC3"
    },
    {
      "bufferView": 1,
      "byteOffset": 18888,
      "componentType": 5126,
      "count": 961,
      "max": [
        1.0000003576278687,
        1.0
      ],
      "min": [
        0.0,
        -3.650784492492676e-07
      ],
      "type": "VEC2"
    },
    {
      "bufferView": 0,
      "byteOffset": 52320,
      "componentType": 5125,
      "count": 5400,
      "type": "SCALAR"
    }
  ],
  "asset": {
    "extras": {
      "author": "Toby_Kershaw (https://sketchfab.com/Toby_Kershaw)",
      "license": "CC-BY-4.0 (http://creativecommons.org/licenses/by/4.0/)",
      "source": "https://sketchfab.com/3d-models/physics-atom-438f10665243486bb29cff87bea7cd57",
      "title": "Physics Atom"
    },
    "generator": "Sketchfab-12.66.0",
    "version": "2.0"
  },
  "bufferViews": [
    {
      "buffer": 0,
      "byteLength": 73920,
      "name": "floatBufferViews",
      "target": 34963
    },
    {
      "buffer": 0,
      "byteLength": 26576,
      "byteOffset": 73920,
      "byteStride": 8,
      "name": "floatBufferViews",
      "target": 34962
    },
    {
      "buffer": 0,
      "byteLength": 79728,
      "byteOffset": 100496,
      "byteStride": 12,
      "name": "floatBufferViews",
      "target": 34962
    }
  ],
  "buffers": [
    {
      "byteLength": 180224,
      "uri": "scene.bin"
    }
  ],
  "materials": [
    {
      "doubleSided": true,
      "name": "blue",
      "pbrMetallicRoughness": {
        "baseColorFactor": [
          0.0,
          0.8,
          0.8,
          1.0
        ],
        "metallicFactor": 0.0,
        "roughnessFactor": 0.6
      }
    },
    {
      "doubleSided": true,
      "name": "material",
      "pbrMetallicRoughness": {
        "baseColorFactor": [
          0.8,
          0.0,
          0.0,
          1.0
        ],
        "metallicFactor": 0.0,
        "roughnessFactor": 0.6
      }
    }
  ],
  "meshes": [
    {
      "name": "pTorus1_blue_0",
      "primitives": [
        {
          "attributes": {
            "NORMAL": 1,
            "POSITION": 0,
            "TEXCOORD_0": 2
          },
          "indices": 3,
          "material": 0,
          "mode": 4
        }
      ]
    },
    {
      "name": "pSphere1_red_0",
      "primitives": [
        {
          "attributes": {
            "NORMAL": 5,
            "POSITION": 4,
            "TEXCOORD_0": 6
          },
          "indices": 7,
          "material": 1,
          "mode": 4
        }
      ]
    },
    {
      "name": "pTorus2_blue_0",
      "primitives": [
        {
          "attributes": {
            "NORMAL": 9,
            "POSITION": 8,
            "TEXCOORD_0": 10
          },
          "indices": 11,
          "material": 0,
          "mode": 4
        }
      ]
    },
    {
      "name": "pTorus3_blue_0",
      "primitives": [
        {
          "attributes": {
            "NORMAL": 13,
            "POSITION": 12,
            "TEXCOORD_0": 14
          },
          "indices": 15,
          "material": 0,
          "mode": 4
        }
      ]
    }
  ],
  "nodes": [
    {
      "children": [
        1
      ],
      "matrix": [
        1.0,
        0.0,
        0.0,
        0.0,
        0.0,
        2.220446049250313e-16,
        -1.0,
        0.0,
        0.0,
        1.0,
        2.220446049250313e-16,
        0.0,
        0.0,
        0.0,
        0.0,
        1.0
      ],
      "name": "Sketchfab_model"
    },
    {
      "children": [
        2
      ],
      "matrix": [
        1.0,
        0.0,
        0.0,
        0.0,
        0.0,
        0.0,
        1.0,
        0.0,
        0.0,
        -1.0,
        0.0,
        0.0,
        0.0,
        0.0,
        0.0,
        1.0
      ],
      "name": "da94a5df95604526a0a3974d5bb1af5c.fbx"
    },
    {
      "children": [
        3,
        5,
        7,
        9
      ],
      "name": "RootNode"
    },
    {
      "children": [
        4
      ],
      "matrix": [
        3.3952860741351725e-18,
        0.015291009098291397,
        0.0,
        0.0,
        -0.008336247876286507,
        1.8510188662471686e-18,
        0.0,
        0.0,
        0.0,
        0.0,
        0.006939260754734278,
        0.0,
        0.0,
        0.0,
        0.0,
        1.0
      ],
      "name": "pTorus1"
    },
    {
      "mesh": 0,
      "name": "pTorus1_blue_0"
    },
    {
      "children": [
        6
      ],
      "matrix": [
        0.009999999776482582,
        0.0,
        0.0,
        0.0,
        0.0,
        0.009999999776482582,
        0.0,
        0.0,
        0.0,
        0.0,
        0.009999999776482582,
        0.0,
        0.0,
        0.0,
        0.0,
        1.0
      ],
      "name": "pSphere1"
    },
    {
      "mesh": 1,
      "name": "pSphere1_red_0"
    },
    {
      "children": [
        8
      ],
      "matrix": [
        0.0,
        0.00982887118798585,
        0.01171359254942786,
        0.0,
        -0.008336247876286507,
        0.0,
        0.0,
        0.0,
        0.0,
        -0.005315782140517799,
        0.004460470833527257,
        0.0,
        0.0,
        0.0,
        0.0,
        1.0
      ],
      "name": "pTorus2"
    },
    {
      "mesh": 2,
      "name": "pTorus2_blue_0"
    },
    {
      "children": [
        10
      ],
      "matrix": [
        -8.284498020889821e-16,
        -0.008770562506809404,
        0.012525661362106973,
        0.0,
        -0.008336247876286508,
        7.839064898556759e-16,
        9.255094331235843e-19,
        0.0,
        -5.358220372861589e-16,
        -0.005684309633094957,
        -0.00398019645461116,
        0.0,
        0.0,
        0.0,
        0.0,
        1.0
      ],
      "name": "pTorus3"
    },
    {
      "mesh": 3,
      "name": "pTorus3_blue_0"
    }
  ],
  "scene": 0,
  "scenes": [
    {
      "name": "Sketchfab_Scene",
      "nodes": [
        0
      ]
    }
  ]
}
